<?xml version="1.0" encoding="UTF-8"?>
<svg version="1.1" xmlns="http://www.w3.org/2000/svg" width="225" height="225">
<path d="M0 0 C74.25 0 148.5 0 225 0 C225 74.25 225 148.5 225 225 C150.75 225 76.5 225 0 225 C0 150.75 0 76.5 0 0 Z " fill="#C62027" transform="translate(0,0)"/>
<path d="M0 0 C53.46 0 106.92 0 162 0 C162 6.6 162 13.2 162 20 C108.54 20 55.08 20 0 20 C0 13.4 0 6.8 0 0 Z " fill="#2C2864" transform="translate(34,149)"/>
<path d="M0 0 C0.95970703 -0.00257812 1.91941406 -0.00515625 2.90820312 -0.0078125 C8.97321906 0.07387122 14.00564053 0.9958947 19.68383789 3.15429688 C23.67393228 3.84133583 23.67393228 3.84133583 31.5625 0.5 C31.5625 6.77 31.5625 13.04 31.5625 19.5 C29.108125 18.22125 26.65375 16.9425 24.125 15.625 C22.64138689 14.87866797 21.1540283 14.13964205 19.66015625 13.4140625 C18.98476807 13.0835791 18.30937988 12.7530957 17.61352539 12.41259766 C8.96984592 8.56661814 -0.17056905 9.29533159 -9.4375 9.5 C-10.02820014 11.44603274 -10.02820014 11.44603274 -10.4375 13.5 C-8.63590734 15.30159266 -5.85939207 14.9086578 -3.41796875 15.11328125 C-1.54141602 15.2844043 -1.54141602 15.2844043 0.37304688 15.45898438 C2.997395 15.69365086 5.62198896 15.91500086 8.24804688 16.13085938 C29.6340592 18.12456302 29.6340592 18.12456302 36.5625 25.5 C39.69558361 29.49738254 40.09131413 32.47626577 39.5625 37.5 C37.81320606 42.1954732 35.76689238 44.79050269 31.5625 47.5 C19.41838242 52.91888912 7.63372458 52.38635595 -5.18359375 49.25390625 C-11.81637168 47.71714018 -15.41816388 47.00038598 -21.4375 50.5 C-22.0975 50.5 -22.7575 50.5 -23.4375 50.5 C-23.4375 43.57 -23.4375 36.64 -23.4375 29.5 C-21.74625 30.593125 -20.055 31.68625 -18.3125 32.8125 C-5.34580713 41.01591794 5.55809513 42.16037811 20.5625 41.5 C21.2225 41.17 21.8825 40.84 22.5625 40.5 C22.2325 39.51 21.9025 38.52 21.5625 37.5 C19.12033709 36.27891854 17.30217528 36.26423616 14.57421875 36.10546875 C-15.19806151 34.15941297 -15.19806151 34.15941297 -24.4375 24.5 C-26.4180192 20.5389616 -25.84721675 15.81731379 -25.4375 11.5 C-23.1802581 5.95949716 -19.4413248 4.05736132 -14.28613281 1.55615234 C-9.52572334 -0.20880578 -5.02302131 -0.14783474 0 0 Z " fill="#FCF9F9" transform="translate(152.4375,54.5)"/>
<path d="M0 0 C16.17 0 32.34 0 49 0 C45.72396163 3.27603837 43.78182406 5.19233006 40.23046875 7.5546875 C37.87102692 9.55621129 37.08975223 10.6163532 36.37744141 13.66113281 C36.16589163 16.8441117 36.19225834 19.93764168 36.3125 23.125 C36.31056641 24.20910156 36.30863281 25.29320313 36.30664062 26.41015625 C36.18858802 32.30588677 36.18858802 32.30588677 38.91479492 37.27685547 C44.05650783 41.52579701 50.6341134 40.40407075 57 40 C59.87468896 39.33413754 61.46678958 38.5906205 64 37 C66.60453211 29.18640367 66.74863406 19.01274673 65 11 C62.22420906 6.20628586 57.71074413 3.64979357 53 1 C53 0.67 53 0.34 53 0 C65.87 0 78.74 0 92 0 C88.88946842 3.11053158 86.2506787 5.73885366 82.8125 8.3125 C82.13832031 8.82425781 81.46414062 9.33601563 80.76953125 9.86328125 C79 11 79 11 77 11 C77.0314209 12.27846802 77.0314209 12.27846802 77.06347656 13.58276367 C77.13185244 16.76029433 77.18189738 19.93744871 77.21972656 23.11547852 C77.2397799 24.48800023 77.26703028 25.86043717 77.30175781 27.23266602 C77.35054552 29.21072044 77.37088876 31.18941119 77.390625 33.16796875 C77.4220459 34.95110474 77.4220459 34.95110474 77.45410156 36.77026367 C76.90883234 40.64841773 75.70633016 42.22720729 73 45 C62.80550399 52.16237099 48.98172743 52.14907818 37 51 C28.6054089 49.39020301 20.50579426 45.91157234 15.41699219 38.78222656 C13.75801179 35.52486257 13.65328385 33.46112646 13.70703125 29.82421875 C13.71669922 28.66728516 13.72636719 27.51035156 13.73632812 26.31835938 C13.76146484 25.12017578 13.78660156 23.92199219 13.8125 22.6875 C13.83280273 20.8612207 13.83280273 20.8612207 13.85351562 18.99804688 C13.88880739 15.99824655 13.93811519 12.99935025 14 10 C12.8385144 9.55732788 12.8385144 9.55732788 11.65356445 9.10571289 C8.74866244 7.89527024 6.64694205 6.39118614 4.1875 4.4375 C3.39730469 3.81746094 2.60710938 3.19742188 1.79296875 2.55859375 C0.90544922 1.78708984 0.90544922 1.78708984 0 1 C0 0.67 0 0.34 0 0 Z " fill="#FCFAFA" transform="translate(32,55)"/>
<path d="M0 0 C5.96092241 2.06034836 11.56852865 5.24824226 14.64453125 10.9140625 C16.35698649 18.79280174 17.11579557 30.84210588 12.64453125 37.9140625 C6.27294541 41.96870803 -1.01527496 41.73061516 -8.35546875 40.9140625 C-11.64370731 39.67222773 -13.74613424 38.13273153 -15.35546875 34.9140625 C-17.59184978 14.82071138 -17.59184978 14.82071138 -13.48828125 7.65234375 C-11.18837582 5.67291694 -9.05288906 4.28510229 -6.35546875 2.9140625 C-5.700625 2.34300781 -5.04578125 1.77195313 -4.37109375 1.18359375 C-2.35546875 -0.0859375 -2.35546875 -0.0859375 0 0 Z " fill="#C0252E" transform="translate(83.35546875,55.0859375)"/>
<path d="M0 0 C7.26 0 14.52 0 22 0 C22 0.99 22 1.98 22 3 C22.66 3 23.32 3 24 3 C24.125 7.75 24.125 7.75 23 10 C23.66 10 24.32 10 25 10 C25 7.03 25 4.06 25 1 C34.24 1 43.48 1 53 1 C46.25 8.875 46.25 8.875 43.125 12.4375 C42.52945313 13.11683594 41.93390625 13.79617187 41.3203125 14.49609375 C40.88460937 14.99238281 40.44890625 15.48867187 40 16 C42.64 16.33 45.28 16.66 48 17 C48.268125 16.38125 48.53625 15.7625 48.8125 15.125 C50 13 50 13 53 11 C53 14.63 53 18.26 53 22 C35.51 22 18.02 22 0 22 C0 21.34 0 20.68 0 20 C0.80824219 19.59136719 1.61648437 19.18273437 2.44921875 18.76171875 C5.29007334 17.21776623 5.29007334 17.21776623 5.70703125 14.08203125 C5.74183594 13.00308594 5.77664062 11.92414063 5.8125 10.8125 C5.86019531 9.72582031 5.90789062 8.63914062 5.95703125 7.51953125 C5.97121094 6.68808594 5.98539062 5.85664062 6 5 C5.195625 4.731875 4.39125 4.46375 3.5625 4.1875 C2.716875 3.795625 1.87125 3.40375 1 3 C0.67 2.01 0.34 1.02 0 0 Z " fill="#C43339" transform="translate(69,117)"/>
<path d="M0 0 C4.54144994 -0.11647041 9.08251394 -0.18734502 13.625 -0.25 C15.55279297 -0.30027344 15.55279297 -0.30027344 17.51953125 -0.3515625 C28.18645717 -0.46210059 28.18645717 -0.46210059 31.84375 1.84375 C34.26032617 4.26032617 34.8122794 5.62102913 35 9 C30.08833303 13.11518044 27.1891432 14.13106606 20.8125 14.0625 C19.18248047 14.04896484 19.18248047 14.04896484 17.51953125 14.03515625 C16.68808594 14.02355469 15.85664062 14.01195312 15 14 C16.65 15.98 18.3 17.96 20 20 C13.73 20 7.46 20 1 20 C2.32 18.68 3.64 17.36 5 16 C5.66617309 13.3670271 5.66617309 13.3670271 5.5625 10.5625 C5.58441406 9.63566406 5.60632812 8.70882812 5.62890625 7.75390625 C4.7782005 4.02876616 2.82599807 2.46770988 0 0 Z " fill="#FCFBFB" transform="translate(34,118)"/>
<path d="M0 0 C0.33 0 0.66 0 1 0 C1 8.25 1 16.5 1 25 C-8.10769231 29.55384615 -8.10769231 29.55384615 -14.125 29.5 C-15.28257813 29.5103125 -16.44015625 29.520625 -17.6328125 29.53125 C-21.95023901 28.8500783 -23.92726871 28.16528344 -27 25 C-27.73910189 21.22664977 -27.56436567 17.57615755 -27.375 13.75 C-27.34792969 12.71875 -27.32085937 11.6875 -27.29296875 10.625 C-27.22230799 8.0812125 -27.12372078 5.54166901 -27 3 C-26.67 3 -26.34 3 -26 3 C-26 5.64 -26 8.28 -26 11 C-22.535 10.505 -22.535 10.505 -19 10 C-18.40267181 12.76264289 -18 15.16032769 -18 18 C-17.443125 17.46375 -16.88625 16.9275 -16.3125 16.375 C-15.549375 15.92125 -14.78625 15.4675 -14 15 C-10.82913833 15.85071899 -8.743586 17.17094266 -6 19 C-6.33 16.69 -6.66 14.38 -7 12 C-4.625 10.9375 -4.625 10.9375 -2 10 C-1.34 10.33 -0.68 10.66 0 11 C0 7.37 0 3.74 0 0 Z " fill="#C41F27" transform="translate(96,67)"/>
<path d="M0 0 C6.27 0 12.54 0 19 0 C18.34 1.65 17.68 3.3 17 5 C17.87417566 7.59117395 17.87417566 7.59117395 19.5625 10 C20.07941406 10.825 20.59632813 11.65 21.12890625 12.5 C23.33815416 15.57550745 23.33815416 15.57550745 28 20 C21.73 20 15.46 20 9 20 C9.66 19.01 10.32 18.02 11 17 C11.66 17 12.32 17 13 17 C13 16.34 13 15.68 13 15 C9.7 15.33 6.4 15.66 3 16 C3.99 17.32 4.98 18.64 6 20 C1.38 20 -3.24 20 -8 20 C-6.63875 17.958125 -6.63875 17.958125 -5.25 15.875 C-4.70859375 15.05257812 -4.1671875 14.23015625 -3.609375 13.3828125 C-2.65882154 11.97543965 -1.67956094 10.58563915 -0.640625 9.2421875 C0.66716109 7.61002968 0.66716109 7.61002968 2 5 C1.34 3.35 0.68 1.7 0 0 Z " fill="#F7EDED" transform="translate(167,118)"/>
<path d="M0 0 C9.24 0 18.48 0 28 0 C21.25 7.875 21.25 7.875 18.125 11.4375 C17.52945313 12.11683594 16.93390625 12.79617187 16.3203125 13.49609375 C15.88460937 13.99238281 15.44890625 14.48867187 15 15 C17.64 15.33 20.28 15.66 23 16 C23.268125 15.38125 23.53625 14.7625 23.8125 14.125 C25 12 25 12 28 10 C28 13.3 28 16.6 28 20 C18.43 20 8.86 20 -1 20 C5.75 11 5.75 11 8.875 8 C9.76832031 7.13375 9.76832031 7.13375 10.6796875 6.25 C11.11539063 5.8375 11.55109375 5.425 12 5 C8.62563814 4.66619186 8.62563814 4.66619186 5 5 C3.15684329 6.9004467 3.15684329 6.9004467 2 9 C1.34 9 0.68 9 0 9 C0 6.03 0 3.06 0 0 Z " fill="#F9F2F2" transform="translate(94,118)"/>
<path d="M0 0 C9.24 0 18.48 0 28 0 C21.25 7.875 21.25 7.875 18.125 11.4375 C17.52945313 12.11683594 16.93390625 12.79617187 16.3203125 13.49609375 C15.88460937 13.99238281 15.44890625 14.48867187 15 15 C17.64 15.33 20.28 15.66 23 16 C23.268125 15.401875 23.53625 14.80375 23.8125 14.1875 C25 12 25 12 28 9 C28 12.63 28 16.26 28 20 C18.43 20 8.86 20 -1 20 C5.75 12.125 5.75 12.125 8.875 8.5625 C9.47054687 7.88316406 10.06609375 7.20382813 10.6796875 6.50390625 C11.33324219 5.75947266 11.33324219 5.75947266 12 5 C8.62563814 4.66619186 8.62563814 4.66619186 5 5 C3.15684329 6.9004467 3.15684329 6.9004467 2 9 C1.34 9 0.68 9 0 9 C0 6.03 0 3.06 0 0 Z " fill="#F9F1F1" transform="translate(127,118)"/>
<path d="M0 0 C6.6 0 13.2 0 20 0 C18.68 1.32 17.36 2.64 16 4 C15.34 4 14.68 4 14 4 C14.06029967 5.91752953 14.14916707 7.83417426 14.25 9.75 C14.29640625 10.81734375 14.3428125 11.8846875 14.390625 12.984375 C14.82416314 16.56155198 14.82416314 16.56155198 19 20 C13.06 20 7.12 20 1 20 C2.32 18.68 3.64 17.36 5 16 C5.69397449 12.96777222 5.69397449 12.96777222 5.75 9.75 C5.80671875 8.67234375 5.8634375 7.5946875 5.921875 6.484375 C5.94765625 5.66453125 5.9734375 4.8446875 6 4 C5.195625 3.71125 4.39125 3.4225 3.5625 3.125 C1 2 1 2 0 0 Z " fill="#FCF9F8" transform="translate(69,118)"/>
<path d="M0 0 C4.54144994 -0.11647041 9.08251394 -0.18734502 13.625 -0.25 C15.55279297 -0.30027344 15.55279297 -0.30027344 17.51953125 -0.3515625 C28.18645717 -0.46210059 28.18645717 -0.46210059 31.84375 1.84375 C34.26032617 4.26032617 34.8122794 5.62102913 35 9 C30.08833303 13.11518044 27.1891432 14.13106606 20.8125 14.0625 C19.18248047 14.04896484 19.18248047 14.04896484 17.51953125 14.03515625 C16.68808594 14.02355469 15.85664062 14.01195312 15 14 C15 13.67 15 13.34 15 13 C17.64 12.67 20.28 12.34 23 12 C23 11.67 23 11.34 23 11 C20.36 10.67 17.72 10.34 15 10 C15 7.69 15 5.38 15 3 C17.64 2.67 20.28 2.34 23 2 C15.74 2 8.48 2 1 2 C0.67 1.34 0.34 0.68 0 0 Z " fill="#F8EDED" transform="translate(34,118)"/>
<path d="M0 0 C6.46182585 0.07480297 12.35710941 1.29961649 18.51757812 3.25976562 C18.18757813 4.24976562 17.85757813 5.23976563 17.51757812 6.25976562 C15.86757812 6.25976562 14.21757812 6.25976562 12.51757812 6.25976562 C12.51757812 7.24976562 12.51757812 8.23976563 12.51757812 9.25976562 C10.16316097 9.11734914 7.80910329 8.97091754 5.45507812 8.82226562 C4.14410156 8.74105469 2.833125 8.65984375 1.48242188 8.57617188 C-9.00276449 7.73942301 -9.00276449 7.73942301 -11.48242188 5.25976562 C-10.46150984 -1.47825384 -5.67627267 0.02554578 0 0 Z " fill="#C52930" transform="translate(152.482421875,62.740234375)"/>
<path d="M0 0 C2.1385485 2.1385485 2.42655063 3.13275314 3 6 C5.64 6.33 8.28 6.66 11 7 C9.36587557 8.70840281 8.13093906 9.93453047 6 11 C5.91773332 14.04386724 6.02391783 16.07175348 7 19 C6.2575 18.67 5.515 18.34 4.75 18 C1.40355853 16.78311219 -0.94818508 16.5325267 -4.25 18 C-4.8275 18.33 -5.405 18.66 -6 19 C-5.9175 17.7625 -5.835 16.525 -5.75 15.25 C-5.7262052 11.89493302 -5.80358323 11.24552096 -8 8.5 C-8.66 8.005 -9.32 7.51 -10 7 C-7.36 7 -4.72 7 -2 7 C-1.855625 6.21625 -1.71125 5.4325 -1.5625 4.625 C-1 2 -1 2 0 0 Z " fill="#2D205A" transform="translate(83,67)"/>
<path d="M0 0 C3.63 0 7.26 0 11 0 C10.67 0.66 10.34 1.32 10 2 C10.66 2.33 11.32 2.66 12 3 C11.67 3.99 11.34 4.98 11 6 C7.37 6 3.74 6 0 6 C0 4.02 0 2.04 0 0 Z " fill="#9896AE" transform="translate(129,156)"/>
<path d="M0 0 C2.97 0 5.94 0 9 0 C9.38218767 1.65614657 9.71395102 3.32457024 10 5 C9 6 9 6 6.93359375 6.09765625 C6.10988281 6.08605469 5.28617188 6.07445312 4.4375 6.0625 C3.61121094 6.05347656 2.78492188 6.04445312 1.93359375 6.03515625 C1.29550781 6.02355469 0.65742187 6.01195312 0 6 C0 4.02 0 2.04 0 0 Z " fill="#BE2931" transform="translate(49,122)"/>
<path d="M0 0 C2.01822917 0.06510417 4.03645833 0.13020833 6.0546875 0.1953125 C5.12194641 1.32426126 4.18328628 2.44832126 3.2421875 3.5703125 C2.72011719 4.19679688 2.19804688 4.82328125 1.66015625 5.46875 C0.0546875 7.1953125 0.0546875 7.1953125 -2.9453125 9.1953125 C-3.9353125 8.5353125 -4.9253125 7.8753125 -5.9453125 7.1953125 C-3.42094902 0.34346878 -3.42094902 0.34346878 0 0 Z " fill="#C11822" transform="translate(100.9453125,121.8046875)"/>
<path d="M0 0 C4.40114397 0.50298788 6.71195019 2.08772731 10 5 C9.67 6.32 9.34 7.64 9 9 C7.68 8.01 6.36 7.02 5 6 C4.67 12.6 4.34 19.2 4 26 C3.67 26 3.34 26 3 26 C3 18.41 3 10.82 3 3 C2.01 2.67 1.02 2.34 0 2 C0 1.34 0 0.68 0 0 Z " fill="#C45559" transform="translate(125,79)"/>
<path d="M0 0 C0.66 0 1.32 0 2 0 C2.625 1.8125 2.625 1.8125 3 4 C2.01 5.485 2.01 5.485 1 7 C-1.1640625 7.29296875 -1.1640625 7.29296875 -3.625 7.1875 C-4.44226563 7.16042969 -5.25953125 7.13335937 -6.1015625 7.10546875 C-7.04128906 7.05326172 -7.04128906 7.05326172 -8 7 C-6.25 4.5 -6.25 4.5 -4 2 C-2.68 2 -1.36 2 0 2 C0 1.34 0 0.68 0 0 Z " fill="#C32127" transform="translate(116,127)"/>
<path d="M0 0 C0.33 0 0.66 0 1 0 C1 3.96 1 7.92 1 12 C-1.49092811 13.24546405 -2.41080733 12.7767578 -5 12 C-4.4140625 5.84765625 -4.4140625 5.84765625 -4 4 C-3.34 3.67 -2.68 3.34 -2 3 C-2 4.65 -2 6.3 -2 8 C-1.34 8 -0.68 8 0 8 C0 5.36 0 2.72 0 0 Z M-6 5 C-5.34 5.33 -4.68 5.66 -4 6 C-4.99 6 -5.98 6 -7 6 C-6.67 5.67 -6.34 5.34 -6 5 Z " fill="#C4343B" transform="translate(74,122)"/>
<path d="M0 0 C4.29 0 8.58 0 13 0 C13 0.66 13 1.32 13 2 C11.1746875 2.12375 11.1746875 2.12375 9.3125 2.25 C5.21534129 2.73758372 2.99860092 4.09510536 0 7 C0 4.69 0 2.38 0 0 Z " fill="#FCFDFC" transform="translate(128,119)"/>
<path d="M0 0 C3.3 0 6.6 0 10 0 C10.33 0.66 10.66 1.32 11 2 C9.9275 2.268125 8.855 2.53625 7.75 2.8125 C4.43491072 3.86227827 2.56122354 4.74612328 0 7 C0 4.69 0 2.38 0 0 Z " fill="#FCFDFD" transform="translate(95,119)"/>
<path d="M0 0 C-0.33 1.65 -0.66 3.3 -1 5 C-2.65 4.67 -4.3 4.34 -6 4 C-6.33 2.68 -6.66 1.36 -7 0 C-4.3333581 -1.33332095 -2.83319697 -0.67102033 0 0 Z " fill="#B3B2C5" transform="translate(159,157)"/>
<path d="M0 0 C2.97 0.495 2.97 0.495 6 1 C5.67 2.32 5.34 3.64 5 5 C2.03 5 -0.94 5 -4 5 C-2.68 3.35 -1.36 1.7 0 0 Z " fill="#C01720" transform="translate(145,129)"/>
<path d="M0 0 C1.51400391 0.01740234 1.51400391 0.01740234 3.05859375 0.03515625 C4.07050781 0.04417969 5.08242187 0.05320313 6.125 0.0625 C7.29869141 0.07990234 7.29869141 0.07990234 8.49609375 0.09765625 C5.54426274 3.04948726 2.54097428 3.18429613 -1.50390625 4.09765625 C-1.50390625 4.75765625 -1.50390625 5.41765625 -1.50390625 6.09765625 C-2.49390625 5.76765625 -3.48390625 5.43765625 -4.50390625 5.09765625 C-3.38261259 0.13192717 -3.38261259 0.13192717 0 0 Z " fill="#BA1F29" transform="translate(145.50390625,62.90234375)"/>
<path d="M0 0 C1.67542976 0.28604898 3.34385343 0.61781233 5 1 C5 2.32 5 3.64 5 5 C3.35 5.33 1.7 5.66 0 6 C-0.38218767 4.34385343 -0.71395102 2.67542976 -1 1 C-0.67 0.67 -0.34 0.34 0 0 Z " fill="#B6B5C8" transform="translate(116,156)"/>
<path d="M0 0 C3.63 0 7.26 0 11 0 C11 0.66 11 1.32 11 2 C6.64722617 4.05547653 6.64722617 4.05547653 3.8125 3.8125 C2 3 2 3 0 0 Z " fill="#BB1A23" transform="translate(169,133)"/>
<path d="M0 0 C2.31 0 4.62 0 7 0 C5.515 2.475 5.515 2.475 4 5 C6.64 5.33 9.28 5.66 12 6 C12 6.33 12 6.66 12 7 C8.37 7 4.74 7 1 7 C1.33 5.35 1.66 3.7 2 2 C1.34 1.34 0.68 0.68 0 0 Z " fill="#BF141D" transform="translate(158,90)"/>
<path d="M0 0 C1.65 0 3.3 0 5 0 C5 1.98 5 3.96 5 6 C3.35 6 1.7 6 0 6 C0 4.02 0 2.04 0 0 Z " fill="#D4D3DC" transform="translate(108,156)"/>
<path d="M0 0 C0.66 0 1.32 0 2 0 C2 0.66 2 1.32 2 2 C2.66 2 3.32 2 4 2 C4 1.34 4 0.68 4 0 C4.66 0 5.32 0 6 0 C6 1.98 6 3.96 6 6 C5.34 6 4.68 6 4 6 C4 5.34 4 4.68 4 4 C3.34 4 2.68 4 2 4 C2 4.66 2 5.32 2 6 C1.34 6 0.68 6 0 6 C0 4.02 0 2.04 0 0 Z " fill="#D3D2DF" transform="translate(48,156)"/>
<path d="M0 0 C2.00841268 0.01421885 4.01537247 0.13420475 6.01953125 0.265625 C4.01953125 3.265625 4.01953125 3.265625 1.85546875 3.77734375 C0.63730469 3.86435547 0.63730469 3.86435547 -0.60546875 3.953125 C-1.42273438 4.01886719 -2.24 4.08460937 -3.08203125 4.15234375 C-3.70851563 4.18972656 -4.335 4.22710937 -4.98046875 4.265625 C-3.72152968 1.74774686 -2.88459378 0.38688832 0 0 Z " fill="#C1272E" transform="translate(100.98046875,121.734375)"/>
<path d="M0 0 C3.75 -0.375 3.75 -0.375 7 0 C7 0.33 7 0.66 7 1 C5.35 1 3.7 1 2 1 C2 2.32 2 3.64 2 5 C2 5.33 2 5.66 2 6 C0.02 6 -1.96 6 -4 6 C-2.4375 3 -2.4375 3 0 0 Z " fill="#C6383E" transform="translate(165,90)"/>
<path d="M0 0 C0.99 0.33 1.98 0.66 3 1 C3.33 2.65 3.66 4.3 4 6 C2.02 6 0.04 6 -2 6 C-1.34 4.02 -0.68 2.04 0 0 Z " fill="#DBDBE4" transform="translate(170,156)"/>
<path d="M0 0 C1.65 0 3.3 0 5 0 C5 1.32 5 2.64 5 4 C4.01 4 3.02 4 2 4 C2 4.66 2 5.32 2 6 C1.34 6 0.68 6 0 6 C0 4.02 0 2.04 0 0 Z " fill="#D7D6DF" transform="translate(66,156)"/>
<path d="M0 0 C2.0625 0.4375 2.0625 0.4375 4 1 C4 2.66666667 4 4.33333333 4 6 C2.35 6 0.7 6 -1 6 C-1.042721 4.33388095 -1.04063832 2.66617115 -1 1 C-0.67 0.67 -0.34 0.34 0 0 Z " fill="#CDCCD9" transform="translate(143,156)"/>
<path d="M0 0 C2.475 0.495 2.475 0.495 5 1 C5 1.99 5 2.98 5 4 C4.01 4 3.02 4 2 4 C2 4.66 2 5.32 2 6 C1.34 6 0.68 6 0 6 C0 4.02 0 2.04 0 0 Z " fill="#D9D8E0" transform="translate(101,156)"/>
<path d="M0 0 C1.65 0 3.3 0 5 0 C4.814375 0.61875 4.62875 1.2375 4.4375 1.875 C3.76313824 4.04160178 3.76313824 4.04160178 5 6 C3.35 6 1.7 6 0 6 C0 4.02 0 2.04 0 0 Z " fill="#E2E1EB" transform="translate(56,156)"/>
<path d="M0 0 C0.66 0 1.32 0 2 0 C2.66 1.98 3.32 3.96 4 6 C2.02 6 0.04 6 -2 6 C-1.34 4.02 -0.68 2.04 0 0 Z " fill="#E3E2EB" transform="translate(92,156)"/>
<path d="M0 0 C1.65 0 3.3 0 5 0 C5 0.99 5 1.98 5 3 C4.01 3.495 4.01 3.495 3 4 C3.66 4.66 4.32 5.32 5 6 C3.35 6 1.7 6 0 6 C0 4.02 0 2.04 0 0 Z " fill="#D7D6E2" transform="translate(129,156)"/>
<path d="M0 0 C1.65 0 3.3 0 5 0 C5 2 5 4 5 6 C3.35 6 1.7 6 0 6 C0.66 4.35 1.32 2.7 2 1 C1.34 0.67 0.68 0.34 0 0 Z " fill="#DDDCE4" transform="translate(77,156)"/>
<path d="M0 0 C1.65 0 3.3 0 5 0 C4.34 1.65 3.68 3.3 3 5 C3.66 5.33 4.32 5.66 5 6 C3.35 6 1.7 6 0 6 C0.66 4.68 1.32 3.36 2 2 C1.34 1.34 0.68 0.68 0 0 Z " fill="#E9E8EF" transform="translate(83,156)"/>
<path d="M0 0 C0.66 0.33 1.32 0.66 2 1 C1.67 1.99 1.34 2.98 1 4 C1.99 4.33 2.98 4.66 4 5 C1.36 5 -1.28 5 -4 5 C-2.68 3.35 -1.36 1.7 0 0 Z " fill="#BB121B" transform="translate(112,129)"/>
<path d="M0 0 C0 3.86695678 -1.41909971 6.5088452 -3 10 C-3.33 9.01 -3.66 8.02 -4 7 C-4.66 6.67 -5.32 6.34 -6 6 C-4.02 4.02 -2.04 2.04 0 0 Z " fill="#BB3036" transform="translate(155,118)"/>
<path d="M0 0 C0.99 0.66 1.98 1.32 3 2 C2.67 3.32 2.34 4.64 2 6 C0.68 5.67 -0.64 5.34 -2 5 C-1.34 3.35 -0.68 1.7 0 0 Z " fill="#504D79" transform="translate(88,156)"/>
<path d="M0 0 C0.99 0.33 1.98 0.66 3 1 C3 2.98 3 4.96 3 7 C3.66 7.33 4.32 7.66 5 8 C3.02 8.99 3.02 8.99 1 10 C1.03255208 7.98177083 1.06510417 5.96354167 1.09765625 3.9453125 C1.12649242 1.91814596 1.12649242 1.91814596 0 0 Z " fill="#4C1C4B" transform="translate(76,76)"/>
<path d="M0 0 C1.65 0 3.3 0 5 0 C4.01 0.33 3.02 0.66 2 1 C2 1.66 2 2.32 2 3 C2.66 3.33 3.32 3.66 4 4 C3.34 4 2.68 4 2 4 C2 4.66 2 5.32 2 6 C1.34 6 0.68 6 0 6 C0 4.02 0 2.04 0 0 Z " fill="#EEEDF4" transform="translate(123,156)"/>
<path d="M0 0 C0.99 0.33 1.98 0.66 3 1 C2.67 1.66 2.34 2.32 2 3 C4.31 3.33 6.62 3.66 9 4 C9 4.33 9 4.66 9 5 C6.03 5 3.06 5 0 5 C0 3.35 0 1.7 0 0 Z " fill="#ECD0D0" transform="translate(107,130)"/>
<path d="M0 0 C0.66 0 1.32 0 2 0 C2 0.66 2 1.32 2 2 C2.66 2 3.32 2 4 2 C4 2.66 4 3.32 4 4 C3.01 4 2.02 4 1 4 C1 5.65 1 7.3 1 9 C0.67 9 0.34 9 0 9 C0 6.03 0 3.06 0 0 Z " fill="#BE1523" transform="translate(122,126)"/>
</svg>
